<?xml version="1.0" encoding="UTF-8" standalone="no"?>
<svg
   xmlns:ns1="http://wanglongqi.github.io/WriteTeX"
   xmlns:dc="http://purl.org/dc/elements/1.1/"
   xmlns:cc="http://creativecommons.org/ns#"
   xmlns:rdf="http://www.w3.org/1999/02/22-rdf-syntax-ns#"
   xmlns:svg="http://www.w3.org/2000/svg"
   xmlns="http://www.w3.org/2000/svg"
   xmlns:sodipodi="http://sodipodi.sourceforge.net/DTD/sodipodi-0.dtd"
   xmlns:inkscape="http://www.inkscape.org/namespaces/inkscape"
   width="589.47064mm"
   height="125.28526mm"
   viewBox="0 0 589.47064 125.28526"
   version="1.1"
   id="svg37788"
   inkscape:version="1.0.1 (c497b03c, 2020-09-10)"
   sodipodi:docname="hf_layer_2.svg">
  <sodipodi:namedview
     id="base"
     pagecolor="#ffffff"
     bordercolor="#666666"
     borderopacity="1.0"
     inkscape:pageopacity="0.0"
     inkscape:pageshadow="2"
     inkscape:zoom="0.35"
     inkscape:cx="1109.9532"
     inkscape:cy="-476.88402"
     inkscape:document-units="mm"
     inkscape:current-layer="layer1"
     showgrid="false"
     inkscape:window-width="2560"
     inkscape:window-height="1340"
     inkscape:window-x="1792"
     inkscape:window-y="23"
     inkscape:window-maximized="1"
     fit-margin-top="0"
     fit-margin-left="0"
     fit-margin-right="0"
     fit-margin-bottom="0"
     inkscape:snap-global="false"
     inkscape:document-rotation="0" />
  <defs
     id="defs37782" />
  <metadata
     id="metadata37785">
    <rdf:RDF>
      <cc:Work
         rdf:about="">
        <dc:format>image/svg+xml</dc:format>
        <dc:type
           rdf:resource="http://purl.org/dc/dcmitype/StillImage" />
        <dc:title />
      </cc:Work>
    </rdf:RDF>
  </metadata>
  <g
     transform="translate(556.29549,-176.92902)"
     id="layer1"
     inkscape:groupmode="layer"
     inkscape:label="Layer 1">
    <text
       xml:space="preserve"
       style="font-style:normal;font-weight:normal;font-size:42.3333px;line-height:1.25;font-family:sans-serif;letter-spacing:0px;word-spacing:0px;writing-mode:lr-tb;fill:#000000;fill-opacity:1;stroke:none;stroke-width:0.264583"
       x="-462.43726"
       y="266.36871"
       id="text5717-0-3-1-0-7-0"
       inkscape:export-xdpi="140"
       inkscape:export-ydpi="140"
       inkscape:export-filename="C:\Users\jo\eq 27 q 2x2.png"><tspan
         sodipodi:role="line"
         id="tspan5715-6-3-9-8-9-9"
         x="-462.43726"
         y="266.36871"
         style="font-size:25.4px;writing-mode:lr-tb;stroke-width:0.264583">= softmax</tspan></text>
    <rect
       style="opacity:1;fill:#fdbd00;fill-opacity:1;stroke:none;stroke-width:1;stroke-linecap:round;stroke-linejoin:miter;stroke-miterlimit:4;stroke-dasharray:none;stroke-opacity:1;paint-order:markers stroke fill"
       id="rect4896-3-56-1-3-6-4-3-7-4-9-1"
       width="20"
       height="20"
       x="246.84993"
       y="273.72452"
       transform="rotate(90)"
       inkscape:export-filename="C:\Users\jo\eq 27 q 2x2.png"
       inkscape:export-xdpi="140"
       inkscape:export-ydpi="140" />
    <text
       xml:space="preserve"
       style="font-style:normal;font-weight:normal;font-size:42.3333px;line-height:1.25;font-family:sans-serif;letter-spacing:0px;word-spacing:0px;writing-mode:lr-tb;fill:#000000;fill-opacity:1;stroke:none;stroke-width:0.264583"
       x="-320.86621"
       y="268.67349"
       id="text6962-5-1-2-2-06"
       inkscape:export-filename="C:\Users\jo\eq 27 q 2x2.png"
       inkscape:export-xdpi="140"
       inkscape:export-ydpi="140"><tspan
         sodipodi:role="line"
         id="tspan6960-32-3-7-6-17"
         x="-320.86621"
         y="268.67349"
         style="writing-mode:lr-tb;stroke-width:0.264583">(</tspan></text>
    <text
       xml:space="preserve"
       style="font-style:normal;font-weight:normal;font-size:42.3333px;line-height:1.25;font-family:sans-serif;letter-spacing:0px;word-spacing:0px;writing-mode:lr-tb;fill:#000000;fill-opacity:1;stroke:none;stroke-width:0.264583"
       x="-82.36702"
       y="268.67349"
       id="text6962-0-6-50-6-9-5"
       inkscape:export-filename="C:\Users\jo\eq 27 q 2x2.png"
       inkscape:export-xdpi="140"
       inkscape:export-ydpi="140"><tspan
         sodipodi:role="line"
         id="tspan6960-5-9-73-3-0-35"
         x="-82.36702"
         y="268.67349"
         style="writing-mode:lr-tb;stroke-width:0.264583">)</tspan></text>
    <g
       inkscape:export-ydpi="140"
       inkscape:export-xdpi="140"
       transform="translate(-1353.7405,941.68949)"
       id="g5758-6-1">
      <rect
         transform="rotate(-90)"
         y="838.88666"
         x="674.83966"
         height="20"
         width="20"
         id="rect4896-6-3-2-9-07-6-4-0"
         style="opacity:1;fill:#2358d7;fill-opacity:1;stroke:#000000;stroke-width:1;stroke-linecap:round;stroke-linejoin:miter;stroke-miterlimit:4;stroke-dasharray:none;stroke-opacity:1;paint-order:markers stroke fill" />
      <rect
         transform="rotate(-90)"
         y="797.94501"
         x="674.83966"
         height="20"
         width="20"
         id="rect4896-0-6-1-4-9-9-8-9-88"
         style="opacity:1;fill:#2358d7;fill-opacity:1;stroke:#000000;stroke-width:1;stroke-linecap:round;stroke-linejoin:miter;stroke-miterlimit:4;stroke-dasharray:none;stroke-opacity:1;paint-order:markers stroke fill" />
      <rect
         transform="rotate(-90)"
         y="818.41583"
         x="674.83966"
         height="20"
         width="20"
         id="rect4896-5-3-9-3-6-3-9-0-1"
         style="opacity:1;fill:#2358d7;fill-opacity:1;stroke:#000000;stroke-width:1;stroke-linecap:round;stroke-linejoin:miter;stroke-miterlimit:4;stroke-dasharray:none;stroke-opacity:1;paint-order:markers stroke fill" />
      <rect
         transform="rotate(-90)"
         y="859.25958"
         x="674.83948"
         height="20"
         width="20"
         id="rect4896-6-3-2-9-9-5-8-0-8"
         style="opacity:1;fill:#2358d7;fill-opacity:1;stroke:#000000;stroke-width:1;stroke-linecap:round;stroke-linejoin:miter;stroke-miterlimit:4;stroke-dasharray:none;stroke-opacity:1;paint-order:markers stroke fill" />
    </g>
    <g
       inkscape:export-ydpi="140"
       inkscape:export-xdpi="140"
       transform="translate(946.54414,922.03679)"
       id="g3425-7-0-0-3">
      <g
         transform="translate(-471.4778,-780.2077)"
         id="g6034-5-4-9-2-6-9-8">
        <rect
           style="opacity:1;fill:#000000;fill-opacity:0.290196;stroke:#e458d7;stroke-width:1;stroke-linecap:round;stroke-linejoin:miter;stroke-miterlimit:4;stroke-dasharray:none;stroke-opacity:1;paint-order:markers stroke fill"
           id="rect4896-2-8-2-2-6-6-2-5-5-7"
           width="20"
           height="20"
           x="617.64581"
           y="-145.49167"
           transform="scale(-1)" />
        <rect
           style="opacity:1;fill:#000000;fill-opacity:0.290196;stroke:#e458d7;stroke-width:1;stroke-linecap:round;stroke-linejoin:miter;stroke-miterlimit:4;stroke-dasharray:none;stroke-opacity:1;paint-order:markers stroke fill"
           id="rect4896-0-0-6-43-9-61-6-5-3-5-0"
           width="20"
           height="20"
           x="617.64581"
           y="-104.55"
           transform="scale(-1)" />
        <rect
           style="opacity:1;fill:#000000;fill-opacity:0.290196;stroke:#e458d7;stroke-width:1;stroke-linecap:round;stroke-linejoin:miter;stroke-miterlimit:4;stroke-dasharray:none;stroke-opacity:1;paint-order:markers stroke fill"
           id="rect4896-09-0-4-2-07-7-2-29-4-6-0"
           width="20"
           height="20"
           x="638.1167"
           y="-125.02083"
           transform="scale(-1)" />
        <rect
           style="opacity:1;fill:#000000;fill-opacity:0.290196;stroke:#e458d7;stroke-width:1;stroke-linecap:round;stroke-linejoin:miter;stroke-miterlimit:4;stroke-dasharray:none;stroke-opacity:1;paint-order:markers stroke fill"
           id="rect4896-9-0-9-2-4-0-2-4-4-1-6"
           width="20"
           height="20"
           x="638.1167"
           y="-104.55"
           transform="scale(-1)" />
        <rect
           style="opacity:1;fill:#000000;fill-opacity:0.290196;stroke:#e458d7;stroke-width:1;stroke-linecap:round;stroke-linejoin:miter;stroke-miterlimit:4;stroke-dasharray:none;stroke-opacity:1;paint-order:markers stroke fill"
           id="rect4896-5-6-3-8-1-1-7-7-6-0-8"
           width="20"
           height="20"
           x="617.64581"
           y="-125.02083"
           transform="scale(-1)" />
        <rect
           style="opacity:1;fill:#000000;fill-opacity:0.290196;stroke:#e458d7;stroke-width:1;stroke-linecap:round;stroke-linejoin:miter;stroke-miterlimit:4;stroke-dasharray:none;stroke-opacity:1;paint-order:markers stroke fill"
           id="rect4896-3-56-1-1-6-56-1-32-4-6-8"
           width="20"
           height="20"
           x="638.1167"
           y="-145.49167"
           transform="scale(-1)" />
      </g>
      <g
         transform="translate(-430.53539,-780.2077)"
         id="g6034-5-4-5-2-1-8-7">
        <rect
           style="opacity:1;fill:#000000;fill-opacity:0.290196;stroke:#e458d7;stroke-width:1;stroke-linecap:round;stroke-linejoin:miter;stroke-miterlimit:4;stroke-dasharray:none;stroke-opacity:1;paint-order:markers stroke fill"
           id="rect4896-2-8-2-2-6-2-2-2-9-6"
           width="20"
           height="20"
           x="617.64581"
           y="-145.49167"
           transform="scale(-1)" />
        <rect
           style="opacity:1;fill:#000000;fill-opacity:0.290196;stroke:#e458d7;stroke-width:1;stroke-linecap:round;stroke-linejoin:miter;stroke-miterlimit:4;stroke-dasharray:none;stroke-opacity:1;paint-order:markers stroke fill"
           id="rect4896-0-0-6-43-9-61-2-7-1-3-8"
           width="20"
           height="20"
           x="617.64581"
           y="-104.55"
           transform="scale(-1)" />
        <rect
           style="opacity:1;fill:#000000;fill-opacity:0.290196;stroke:#e458d7;stroke-width:1;stroke-linecap:round;stroke-linejoin:miter;stroke-miterlimit:4;stroke-dasharray:none;stroke-opacity:1;paint-order:markers stroke fill"
           id="rect4896-09-0-4-2-07-7-9-1-5-8-5"
           width="20"
           height="20"
           x="638.1167"
           y="-125.02083"
           transform="scale(-1)" />
        <rect
           style="opacity:1;fill:#000000;fill-opacity:0.290196;stroke:#e458d7;stroke-width:1;stroke-linecap:round;stroke-linejoin:miter;stroke-miterlimit:4;stroke-dasharray:none;stroke-opacity:1;paint-order:markers stroke fill"
           id="rect4896-9-0-9-2-4-0-7-0-5-3-2"
           width="20"
           height="20"
           x="638.1167"
           y="-104.55"
           transform="scale(-1)" />
        <rect
           style="opacity:1;fill:#000000;fill-opacity:0.290196;stroke:#e458d7;stroke-width:1;stroke-linecap:round;stroke-linejoin:miter;stroke-miterlimit:4;stroke-dasharray:none;stroke-opacity:1;paint-order:markers stroke fill"
           id="rect4896-5-6-3-8-1-1-8-4-9-6-9"
           width="20"
           height="20"
           x="617.64581"
           y="-125.02083"
           transform="scale(-1)" />
        <rect
           style="opacity:1;fill:#000000;fill-opacity:0.290196;stroke:#e458d7;stroke-width:1;stroke-linecap:round;stroke-linejoin:miter;stroke-miterlimit:4;stroke-dasharray:none;stroke-opacity:1;paint-order:markers stroke fill"
           id="rect4896-3-56-1-1-6-56-6-17-9-9-7"
           width="20"
           height="20"
           x="638.1167"
           y="-145.49167"
           transform="scale(-1)" />
      </g>
    </g>
    <g
       inkscape:export-ydpi="140"
       inkscape:export-xdpi="140"
       transform="translate(722.85345,1026.5472)"
       id="g3618-3-1-6-8">
      <g
         transform="rotate(-90.083124,-913.52254,-60.18002)"
         id="g5643-3-49-3-8-9-4">
        <rect
           style="opacity:1;fill:#000000;fill-opacity:0.289855;stroke:#2358d7;stroke-width:1;stroke-linecap:round;stroke-linejoin:miter;stroke-miterlimit:4;stroke-dasharray:none;stroke-opacity:1;paint-order:markers stroke fill"
           id="rect4896-2-1-8-7-8-0-36"
           width="20"
           height="20"
           x="-203.88542"
           y="89.145828" />
        <rect
           style="opacity:1;fill:#000000;fill-opacity:0.289855;stroke:#2358d7;stroke-width:1;stroke-linecap:round;stroke-linejoin:miter;stroke-miterlimit:4;stroke-dasharray:none;stroke-opacity:1;paint-order:markers stroke fill"
           id="rect4896-0-0-3-4-8-4-7-4"
           width="20"
           height="20"
           x="-203.88542"
           y="130.08749" />
        <rect
           style="opacity:1;fill:#000000;fill-opacity:0.289855;stroke:#2358d7;stroke-width:1;stroke-linecap:round;stroke-linejoin:miter;stroke-miterlimit:4;stroke-dasharray:none;stroke-opacity:1;paint-order:markers stroke fill"
           id="rect4896-09-0-7-64-3-3-1-3"
           width="20"
           height="20"
           x="-183.41457"
           y="109.61666" />
        <rect
           style="opacity:1;fill:#000000;fill-opacity:0.289855;stroke:#2358d7;stroke-width:1;stroke-linecap:round;stroke-linejoin:miter;stroke-miterlimit:4;stroke-dasharray:none;stroke-opacity:1;paint-order:markers stroke fill"
           id="rect4896-9-0-4-2-6-8-9-8"
           width="20"
           height="20"
           x="-183.41457"
           y="130.08749" />
        <rect
           style="opacity:1;fill:#000000;fill-opacity:0.289855;stroke:#2358d7;stroke-width:1;stroke-linecap:round;stroke-linejoin:miter;stroke-miterlimit:4;stroke-dasharray:none;stroke-opacity:1;paint-order:markers stroke fill"
           id="rect4896-5-6-4-2-10-9-6-7"
           width="20"
           height="20"
           x="-203.88542"
           y="109.61666" />
        <rect
           style="opacity:1;fill:#000000;fill-opacity:0.289855;stroke:#2358d7;stroke-width:1;stroke-linecap:round;stroke-linejoin:miter;stroke-miterlimit:4;stroke-dasharray:none;stroke-opacity:1;paint-order:markers stroke fill"
           id="rect4896-3-56-39-9-2-5-9-7"
           width="20"
           height="20"
           x="-183.41457"
           y="89.145821" />
      </g>
      <g
         transform="rotate(-90.083124,-892.90715,-39.594517)"
         id="g5643-3-49-1-5-2-9-26">
        <rect
           style="opacity:1;fill:#000000;fill-opacity:0.289855;stroke:#2358d7;stroke-width:1;stroke-linecap:round;stroke-linejoin:miter;stroke-miterlimit:4;stroke-dasharray:none;stroke-opacity:1;paint-order:markers stroke fill"
           id="rect4896-2-1-8-5-8-6-9-2"
           width="20"
           height="20"
           x="-203.88542"
           y="89.145828" />
        <rect
           style="opacity:1;fill:#000000;fill-opacity:0.289855;stroke:#2358d7;stroke-width:1;stroke-linecap:round;stroke-linejoin:miter;stroke-miterlimit:4;stroke-dasharray:none;stroke-opacity:1;paint-order:markers stroke fill"
           id="rect4896-0-0-3-4-6-4-4-9-5"
           width="20"
           height="20"
           x="-203.88542"
           y="130.08749" />
        <rect
           style="opacity:1;fill:#000000;fill-opacity:0.289855;stroke:#2358d7;stroke-width:1;stroke-linecap:round;stroke-linejoin:miter;stroke-miterlimit:4;stroke-dasharray:none;stroke-opacity:1;paint-order:markers stroke fill"
           id="rect4896-09-0-7-64-8-2-8-2-5"
           width="20"
           height="20"
           x="-183.41457"
           y="109.61666" />
        <rect
           style="opacity:1;fill:#000000;fill-opacity:0.289855;stroke:#2358d7;stroke-width:1;stroke-linecap:round;stroke-linejoin:miter;stroke-miterlimit:4;stroke-dasharray:none;stroke-opacity:1;paint-order:markers stroke fill"
           id="rect4896-9-0-4-2-8-8-2-4-5"
           width="20"
           height="20"
           x="-183.41457"
           y="130.08749" />
        <rect
           style="opacity:1;fill:#000000;fill-opacity:0.289855;stroke:#2358d7;stroke-width:1;stroke-linecap:round;stroke-linejoin:miter;stroke-miterlimit:4;stroke-dasharray:none;stroke-opacity:1;paint-order:markers stroke fill"
           id="rect4896-5-6-4-2-1-2-5-3-4"
           width="20"
           height="20"
           x="-203.88542"
           y="109.61666" />
        <rect
           style="opacity:1;fill:#000000;fill-opacity:0.289855;stroke:#2358d7;stroke-width:1;stroke-linecap:round;stroke-linejoin:miter;stroke-miterlimit:4;stroke-dasharray:none;stroke-opacity:1;paint-order:markers stroke fill"
           id="rect4896-3-56-39-9-1-8-5-2-96"
           width="20"
           height="20"
           x="-183.41457"
           y="89.145821" />
      </g>
    </g>
    <rect
       inkscape:export-ydpi="140"
       inkscape:export-xdpi="140"
       transform="scale(-1)"
       style="opacity:1;fill:#000000;fill-opacity:0.290196;stroke:#7bc653;stroke-width:1;stroke-linecap:round;stroke-linejoin:miter;stroke-miterlimit:4;stroke-dasharray:none;stroke-opacity:1;paint-order:markers stroke fill"
       id="rect4896-09-0-4-7-5-62-8-4-00"
       width="20"
       height="20"
       x="218.56017"
       y="-266.84991" />
    <rect
       inkscape:export-ydpi="140"
       inkscape:export-xdpi="140"
       transform="scale(-1)"
       style="opacity:1;fill:#000000;fill-opacity:0.290196;stroke:#7bc653;stroke-width:1;stroke-linecap:round;stroke-linejoin:miter;stroke-miterlimit:4;stroke-dasharray:none;stroke-opacity:1;paint-order:markers stroke fill"
       id="rect4896-5-6-3-7-5-0-4-6-9"
       width="20"
       height="20"
       x="198.12938"
       y="-266.84991" />
    <rect
       inkscape:export-ydpi="140"
       inkscape:export-xdpi="140"
       transform="scale(-1)"
       style="opacity:1;fill:#000000;fill-opacity:0.290196;stroke:#7bc653;stroke-width:1;stroke-linecap:round;stroke-linejoin:miter;stroke-miterlimit:4;stroke-dasharray:none;stroke-opacity:1;paint-order:markers stroke fill"
       id="rect4896-09-0-4-7-5-6-4-9-0-0"
       width="20"
       height="20"
       x="239.2379"
       y="-266.84991" />
    <g
       ns1:text="$\\beta$"
       transform="matrix(3.0000001,0,0,3.0000001,-828.52528,-127.51193)"
       id="g14900-7-9-9">
      <g
         id="g14898-0-2-6">
        <g
           style="fill:#000000;fill-opacity:1"
           id="g14896-3-6-9">
          <path
             inkscape:connector-curvature="0"
             style="stroke:none"
             d="m 5.90625,-5.828125 c 0,-0.75 -0.71875,-1.53125 -1.53125,-1.53125 -0.578125,0 -0.984375,0.203125 -1.328125,0.46875 C 2.5,-6.5 1.890625,-5.40625 1.703125,-4.65625 L 0.125,1.671875 C 0.109375,1.71875 0.34375,1.9375 0.421875,1.9375 0.5,1.9375 0.703125,1.75 0.703125,1.71875 l 0.703125,-2.75 H 1.0625 c 0.1875,0.609375 0.796875,1.125 1.53125,1.125 0.71875,0 1.59375,-0.390625 2.046875,-0.828125 0.46875,-0.46875 0.84375,-1.203125 0.84375,-1.953125 0,-0.71875 -0.421875,-1.34375 -0.59375,-1.46875 C 5.28125,-4.390625 5.90625,-5.109375 5.90625,-5.828125 Z M 3.9375,-4.34375 c -0.125,0.046875 -0.234375,0.0625 -0.484375,0.0625 -0.140625,0 -0.21875,0.0625 -0.25,0.046875 0,-0.015625 0.203125,0.171875 0.3125,0.171875 0.203125,0 0.296875,0 0.421875,0.046875 z M 5,-6.0625 C 5,-5.359375 4.671875,-4.765625 4.25,-4.515625 4,-4.609375 3.8125,-4.625 3.515625,-4.625 c -0.21875,0 -0.953125,0.15625 -0.953125,0.484375 -0.015625,0.28125 0.6875,0.40625 0.859375,0.40625 0.375,0 0.53125,0 0.78125,-0.109375 C 4.5,-3.546875 4.5,-3.34375 4.5,-2.890625 4.53125,-2.3125 4.34375,-1.6875 4.0625,-1.296875 c -0.390625,0.546875 -0.9375,0.84375 -1.5,0.84375 -0.765625,0 -0.96875,-0.40625 -0.96875,-1.109375 0,-0.109375 0,-0.25 0.046875,-0.4375 L 2.28125,-4.53125 C 2.5,-5.390625 3.046875,-6.8125 4.25,-6.8125 c 0.578125,0 0.75,0.15625 0.75,0.75 z m 0,0"
             transform="translate(178.585,110.99)"
             id="path14894-7-1-9" />
        </g>
      </g>
    </g>
    <g
       ns1:text="$\\boldsymbol{W}_K^T$"
       transform="matrix(3.0000001,0,0,3.0000001,-708.1156,-125.14062)"
       id="g6186">
      <g
         id="surface1">
        <g
           style="fill:#000000;fill-opacity:1"
           id="g6175">
          <path
             inkscape:connector-curvature="0"
             style="stroke:none"
             d="m 10.953125,-6.046875 c 0.125,-0.1875 0.15625,-0.3125 0.78125,-0.328125 0.125,0 0.421875,-0.15625 0.421875,-0.4375 0,-0.09375 -0.203125,-0.359375 -0.296875,-0.359375 -0.28125,0 -0.578125,0.03125 -0.859375,0.03125 -0.375,0 -0.765625,-0.03125 -1.140625,-0.03125 -0.078125,0 -0.40625,0.171875 -0.40625,0.46875 0,0.171875 0.3125,0.328125 0.390625,0.328125 0.03125,0 0.4375,0 0.46875,0.03125 l -2.75,4.359375 0.21875,0.125 L 7.203125,-6.34375 C 7.25,-6.359375 7.5625,-6.375 7.703125,-6.375 c 0.21875,0 0.5,-0.15625 0.5,-0.4375 0,-0.015625 -0.125,-0.359375 -0.34375,-0.359375 -0.328125,0 -1.125,0.03125 -1.453125,0.03125 -0.21875,0 -0.4375,0 -0.640625,0 -0.296875,0 -0.65625,-0.03125 -0.671875,-0.03125 -0.0625,0 -0.40625,0.171875 -0.40625,0.46875 0,0.171875 0.3125,0.328125 0.46875,0.328125 0.140625,0 0.34375,0.015625 0.359375,0.03125 L 5.625,-5.515625 c 0,0.03125 0.03125,-0.0625 -0.046875,0.046875 L 3.375,-1.984375 3.609375,-1.859375 3.03125,-6.34375 c 0.046875,-0.015625 0.34375,-0.03125 0.5,-0.03125 0.234375,0 0.328125,-0.0625 0.375,-0.109375 0.0625,-0.046875 0.125,-0.328125 0.125,-0.328125 0,-0.015625 -0.140625,-0.359375 -0.34375,-0.359375 -0.328125,0 -1.140625,0.03125 -1.46875,0.03125 -0.21875,0 -0.4375,0 -0.640625,0 -0.265625,0 -0.65625,-0.03125 -0.65625,-0.03125 -0.078125,0 -0.40625,0.171875 -0.40625,0.46875 0,0.171875 0.296875,0.328125 0.46875,0.328125 0.140625,0 0.34375,0.015625 0.34375,0.03125 L 2.125,-0.296875 c 0.03125,0.203125 0.1875,0.46875 0.421875,0.46875 0.21875,0 0.390625,-0.125 0.515625,-0.3125 l 2.875,-4.578125 -0.21875,-0.109375 0.578125,4.53125 c 0.03125,0.234375 0.203125,0.46875 0.4375,0.46875 0.21875,0 0.390625,-0.125 0.5,-0.3125 z m 0,0"
             transform="translate(178.585,110.99)"
             id="path6173" />
        </g>
        <g
           style="fill:#000000;fill-opacity:1"
           id="g6179">
          <path
             inkscape:connector-curvature="0"
             style="stroke:none"
             d="m 3.578125,-4.40625 c 0.046875,-0.203125 -0.125,-0.03125 0.03125,-0.046875 0.03125,0 0.265625,0 0.40625,0 0.4375,0 0.609375,0 0.78125,0.046875 0.3125,0.09375 0.140625,0.109375 0.140625,0.359375 0,0.109375 0,0.203125 -0.046875,0.5625 L 4.875,-3.40625 c 0,0.0625 0.234375,0.296875 0.3125,0.296875 0.109375,0 0.296875,-0.25 0.3125,-0.375 L 5.6875,-4.8125 c 0,-0.09375 -0.265625,-0.28125 -0.390625,-0.28125 h -4.28125 c -0.171875,0 -0.390625,0.1875 -0.4375,0.328125 l -0.4375,1.234375 C 0.125,-3.5 0.109375,-3.4375 0.109375,-3.40625 c 0,0.03125 0.203125,0.296875 0.3125,0.296875 0.09375,0 0.28125,-0.234375 0.328125,-0.359375 0.40625,-1.109375 0.453125,-0.984375 1.515625,-0.984375 h 0.28125 c 0.21875,0 0.03125,-0.1875 0.03125,-0.125 0,0 0,0.03125 -0.03125,0.140625 L 1.625,-0.78125 C 1.5625,-0.515625 1.734375,-0.640625 1,-0.640625 c -0.25,0 -0.5,0.1875 -0.5,0.34375 C 0.5,-0.265625 0.703125,0 0.8125,0 1,0 1.21875,-0.015625 1.40625,-0.015625 1.609375,-0.015625 1.8125,-0.03125 2,-0.03125 c 0.203125,0 0.4375,0 0.640625,0.015625 C 2.828125,-0.015625 3.03125,0 3.21875,0 3.28125,0 3.5625,-0.1875 3.5625,-0.34375 c 0,-0.109375 -0.25,-0.296875 -0.46875,-0.296875 -0.125,0 -0.265625,0 -0.40625,-0.015625 -0.234375,-0.015625 -0.0625,0.140625 -0.0625,0.0625 0,-0.046875 0,-0.0625 0.03125,-0.15625 z m 0,0"
             transform="translate(191.065,106.618)"
             id="path6177" />
        </g>
        <g
           style="fill:#000000;fill-opacity:1"
           id="g6183">
          <path
             inkscape:connector-curvature="0"
             style="stroke:none"
             d="m 4.125,-3.125 c -0.03125,-0.0625 0,0.046875 0,0.046875 0,-0.015625 -0.046875,0.109375 0.125,0 L 4.953125,-3.5625 C 5.875,-4.21875 6.171875,-4.46875 6.65625,-4.515625 c 0.078125,0 0.359375,-0.203125 0.359375,-0.34375 0,-0.046875 -0.234375,-0.28125 -0.28125,-0.28125 -0.15625,0 -0.328125,0.015625 -0.484375,0.015625 -0.1875,0 -0.65625,-0.03125 -0.84375,-0.03125 -0.046875,0 -0.34375,0.203125 -0.34375,0.359375 0,0 0.203125,0.28125 0.296875,0.28125 C 5.453125,-4.5 5.34375,-4.6875 5.34375,-4.609375 c 0,0.125 -0.15625,0.15625 -0.25,0.21875 L 2.625,-2.65625 l 0.4375,-1.75 c 0.0625,-0.234375 -0.109375,-0.109375 0.421875,-0.109375 0.125,0 0.40625,-0.1875 0.40625,-0.328125 0,-0.0625 -0.234375,-0.3125 -0.296875,-0.3125 -0.203125,0 -0.71875,0.03125 -0.921875,0.03125 -0.109375,0 -0.359375,0 -0.484375,0 -0.125,-0.015625 -0.296875,-0.03125 -0.4375,-0.03125 -0.03125,0 -0.328125,0.203125 -0.328125,0.359375 0,0.09375 0.265625,0.28125 0.421875,0.28125 0.109375,0 0.140625,0 0.265625,0.015625 C 2.25,-4.484375 2.0625,-4.65625 2.0625,-4.59375 c 0,0.015625 0,0.046875 -0.03125,0.15625 l -0.921875,3.703125 c -0.0625,0.234375 0.125,0.09375 -0.421875,0.09375 -0.125,0 -0.40625,0.1875 -0.40625,0.34375 C 0.28125,-0.28125 0.484375,0 0.59375,0 0.796875,0 1.296875,-0.03125 1.5,-0.03125 c 0.109375,0 0.359375,0 0.484375,0.015625 C 2.125,-0.015625 2.296875,0 2.421875,0 c 0.046875,0 0.34375,-0.1875 0.34375,-0.34375 0,-0.109375 -0.28125,-0.296875 -0.421875,-0.296875 0,0 -0.140625,0 -0.265625,-0.015625 -0.15625,-0.015625 0.03125,0.15625 0.03125,0.09375 0,-0.0625 0.078125,-0.3125 0.296875,-1.21875 l 0.9375,-0.65625 0.9375,1.8125 c 0.046875,0.09375 -0.015625,-0.03125 -0.015625,0 0,0.15625 0,-0.015625 -0.125,-0.015625 -0.078125,0 -0.375,0.1875 -0.375,0.34375 C 3.765625,-0.28125 3.96875,0 4.078125,0 4.28125,0 4.78125,-0.03125 4.96875,-0.03125 5.1875,-0.03125 5.46875,0 5.65625,0 5.75,0 5.984375,-0.25 5.984375,-0.34375 c 0,-0.109375 -0.28125,-0.296875 -0.34375,-0.296875 -0.125,0 -0.21875,0.0625 -0.328125,-0.171875 z m 0,0"
             transform="translate(191.065,113.453)"
             id="path6181" />
        </g>
      </g>
    </g>
    <g
       ns1:text="$\\boldsymbol{W}_V$"
       transform="matrix(3.0000001,0,0,3.0000001,-576.43129,-127.34037)"
       id="g6558">
      <g
         id="g6556">
        <g
           style="fill:#000000;fill-opacity:1"
           id="g6550">
          <path
             inkscape:connector-curvature="0"
             style="stroke:none"
             d="m 10.953125,-6.046875 c 0.125,-0.1875 0.15625,-0.3125 0.78125,-0.328125 0.125,0 0.421875,-0.15625 0.421875,-0.4375 0,-0.09375 -0.203125,-0.359375 -0.296875,-0.359375 -0.28125,0 -0.578125,0.03125 -0.859375,0.03125 -0.375,0 -0.765625,-0.03125 -1.140625,-0.03125 -0.078125,0 -0.40625,0.171875 -0.40625,0.46875 0,0.171875 0.3125,0.328125 0.390625,0.328125 0.03125,0 0.4375,0 0.46875,0.03125 l -2.75,4.359375 0.21875,0.125 L 7.203125,-6.34375 C 7.25,-6.359375 7.5625,-6.375 7.703125,-6.375 c 0.21875,0 0.5,-0.15625 0.5,-0.4375 0,-0.015625 -0.125,-0.359375 -0.34375,-0.359375 -0.328125,0 -1.125,0.03125 -1.453125,0.03125 -0.21875,0 -0.4375,0 -0.640625,0 -0.296875,0 -0.65625,-0.03125 -0.671875,-0.03125 -0.0625,0 -0.40625,0.171875 -0.40625,0.46875 0,0.171875 0.3125,0.328125 0.46875,0.328125 0.140625,0 0.34375,0.015625 0.359375,0.03125 L 5.625,-5.515625 c 0,0.03125 0.03125,-0.0625 -0.046875,0.046875 L 3.375,-1.984375 3.609375,-1.859375 3.03125,-6.34375 c 0.046875,-0.015625 0.34375,-0.03125 0.5,-0.03125 0.234375,0 0.328125,-0.0625 0.375,-0.109375 0.0625,-0.046875 0.125,-0.328125 0.125,-0.328125 0,-0.015625 -0.140625,-0.359375 -0.34375,-0.359375 -0.328125,0 -1.140625,0.03125 -1.46875,0.03125 -0.21875,0 -0.4375,0 -0.640625,0 -0.265625,0 -0.65625,-0.03125 -0.65625,-0.03125 -0.078125,0 -0.40625,0.171875 -0.40625,0.46875 0,0.171875 0.296875,0.328125 0.46875,0.328125 0.140625,0 0.34375,0.015625 0.34375,0.03125 L 2.125,-0.296875 c 0.03125,0.203125 0.1875,0.46875 0.421875,0.46875 0.21875,0 0.390625,-0.125 0.515625,-0.3125 l 2.875,-4.578125 -0.21875,-0.109375 0.578125,4.53125 c 0.03125,0.234375 0.203125,0.46875 0.4375,0.46875 0.21875,0 0.390625,-0.125 0.5,-0.3125 z m 0,0"
             transform="translate(178.585,110.99)"
             id="path6548" />
        </g>
        <g
           style="fill:#000000;fill-opacity:1"
           id="g6554">
          <path
             inkscape:connector-curvature="0"
             style="stroke:none"
             d="m 5.109375,-3.984375 c 0.265625,-0.375 0.359375,-0.5 0.734375,-0.53125 0.078125,0 0.34375,-0.203125 0.34375,-0.34375 0,-0.015625 -0.203125,-0.296875 -0.28125,-0.296875 -0.171875,0 -0.390625,0.03125 -0.5625,0.03125 -0.21875,0 -0.515625,-0.03125 -0.71875,-0.03125 -0.0625,0 -0.34375,0.21875 -0.34375,0.359375 0,0.09375 0.296875,0.28125 0.328125,0.28125 0.21875,0.015625 0.09375,-0.09375 0.09375,0.015625 0,0.09375 0,0.03125 -0.078125,0.140625 l -2.28125,3.375 0.328125,0.140625 -0.640625,-3.5625 c -0.015625,-0.0625 -0.015625,-0.078125 -0.015625,-0.109375 0,-0.1875 0.203125,0 0.25,0 0.125,0 0.40625,-0.1875 0.40625,-0.34375 0,0 -0.203125,-0.296875 -0.3125,-0.296875 -0.203125,0 -0.6875,0.03125 -0.890625,0.03125 -0.171875,0 -0.609375,-0.03125 -0.78125,-0.03125 -0.0625,0 -0.328125,0.21875 -0.328125,0.359375 0,0.09375 0.28125,0.28125 0.359375,0.28125 0.390625,0 0.203125,-0.140625 0.25,0.03125 l 0.75,4.234375 c 0.03125,0.15625 0.234375,0.390625 0.359375,0.390625 0.140625,0 0.3125,-0.109375 0.375,-0.203125 z m 0,0"
             transform="translate(191.065,112.485)"
             id="path6552" />
        </g>
      </g>
    </g>
    <g
       ns1:text="$\\boldsymbol{Z}$"
       transform="matrix(3.0000001,0,0,3.0000001,-1063.9245,-124.88693)"
       id="g7548">
      <g
         id="g7546">
        <g
           style="fill:#000000;fill-opacity:1"
           id="g7544">
          <path
             inkscape:connector-curvature="0"
             style="stroke:none"
             d="m 7.96875,-6.40625 c 0.078125,-0.09375 0.1875,-0.3125 0.1875,-0.453125 0,-0.140625 -0.234375,-0.3125 -0.421875,-0.3125 h -4.8125 c -0.265625,0 -0.4375,0.171875 -0.515625,0.40625 L 1.859375,-4.96875 C 1.8125,-4.828125 1.8125,-4.796875 1.8125,-4.78125 c 0,0.171875 0.3125,0.34375 0.375,0.34375 0.140625,0 0.3125,-0.1875 0.359375,-0.328125 C 3,-6.03125 3.625,-6.375 5,-6.375 H 5.96875 L 0.75,-0.796875 c -0.078125,0.078125 -0.21875,0.3125 -0.21875,0.5 C 0.53125,-0.15625 0.78125,0 0.984375,0 H 5.96875 c 0.25,0 0.40625,-0.15625 0.484375,-0.390625 L 7.1875,-2.671875 c 0.03125,-0.109375 0.03125,-0.125 0.03125,-0.140625 0,-0.140625 -0.265625,-0.34375 -0.359375,-0.34375 -0.078125,0 -0.3125,0.171875 -0.375,0.296875 C 6.0625,-1.59375 5.734375,-0.84375 3.84375,-0.84375 H 2.765625 Z m 0,0"
             transform="translate(178.585,110.99)"
             id="path7542" />
        </g>
      </g>
    </g>
    <g
       ns1:text="$\\boldsymbol{R}$"
       transform="matrix(2.801028,0,0,3.0426484,-742.9353,-130.90055)"
       id="g12670">
      <g
         id="g12668">
        <g
           style="fill:#000000;fill-opacity:1"
           id="g12666">
          <path
             inkscape:connector-curvature="0"
             style="stroke:none;stroke-width:1.10487"
             d="m 183.49124,104.73309 c 0.0518,-0.15537 0.0173,-0.0518 0,-0.0345 0,0 0.48338,0 0.7596,0 1.00128,0 1.88172,-0.17264 1.88172,0.74233 0,0.0173 0,0.94949 -0.56969,1.51919 -0.15538,0.15537 -0.53517,0.44885 -1.64004,0.44885 h -1.0876 z m 2.0371,3.28008 c 1.96804,-0.53517 2.46868,-1.76089 2.46868,-2.31332 0,-1.10487 -1.32929,-1.88172 -2.96932,-1.88172 h -3.83251 c -0.22443,0 -0.55243,0.18989 -0.55243,0.5179 0,0.1899 0.29348,0.36254 0.60422,0.36254 0.24169,0 0.44885,0.0173 0.48338,0.0345 l -1.53646,6.09403 c -0.0345,0.17264 0.10359,0 -0.10358,0.0173 -0.1899,0.0173 -0.39706,0.0173 -0.56969,0.0173 -0.29348,0 -0.43159,0.0518 -0.46612,0.0691 -0.13811,0.0863 -0.17263,0.39707 -0.17263,0.43159 0,0.0345 0.15537,0.3798 0.37979,0.3798 0.27622,0 0.5697,-0.0173 0.84592,-0.0173 0.25895,0 0.53517,-0.0173 0.81138,-0.0173 0.36254,0 1.29477,0.0345 1.67457,0.0345 0.0863,0 0.27621,-0.0518 0.328,-0.13811 0.0518,-0.0518 0.12085,-0.34527 0.12085,-0.36253 0,-0.1899 -0.29348,-0.3798 -0.58696,-0.3798 -0.24169,0 -0.44885,-0.0173 -0.48338,-0.0173 l 0.67328,-2.67585 h 1.22571 c 0.32801,0 0.93223,-0.10358 0.93223,0.72507 0,0.15537 -0.0863,0.55243 -0.17264,0.82865 -0.10358,0.44885 -0.15537,0.62148 -0.15537,0.79412 0,1.15666 1.64004,1.41561 2.20974,1.41561 1.15665,0 1.70909,-1.2775 1.70909,-1.45014 0,-0.20716 -0.32801,-0.39706 -0.39707,-0.39706 -0.18989,0 -0.37979,0.24169 -0.41432,0.41433 -0.15537,0.43158 -0.39706,0.67327 -0.81139,0.67327 -0.29348,0 -0.36253,0.0691 -0.36253,-0.48338 0,-0.17263 0.0173,-0.34527 0.15537,-1.22571 0.0173,-0.13811 0.0518,-0.34527 0.0518,-0.44885 0,-0.41432 -0.3798,-1.10487 -1.0876,-1.36382 z m 0,0"
             id="path12664" />
        </g>
      </g>
    </g>
    <text
       xml:space="preserve"
       style="font-style:normal;font-weight:normal;font-size:42.3333px;line-height:1.25;font-family:sans-serif;letter-spacing:0px;word-spacing:0px;writing-mode:lr-tb;fill:#000000;fill-opacity:1;stroke:none;stroke-width:0.264583"
       x="-462.43726"
       y="206.84407"
       id="text5717-0-3-1-0-7-0-9"
       inkscape:export-xdpi="140"
       inkscape:export-ydpi="140"
       inkscape:export-filename="C:\Users\jo\eq 27 q 2x2.png"><tspan
         sodipodi:role="line"
         id="tspan5715-6-3-9-8-9-9-6"
         x="-462.43726"
         y="206.84407"
         style="font-size:25.4px;writing-mode:lr-tb;stroke-width:0.264583">= softmax</tspan></text>
    <text
       xml:space="preserve"
       style="font-style:normal;font-weight:normal;font-size:42.3333px;line-height:1.25;font-family:sans-serif;letter-spacing:0px;word-spacing:0px;writing-mode:lr-tb;fill:#000000;fill-opacity:1;stroke:none;stroke-width:0.264583"
       x="-320.86621"
       y="209.14882"
       id="text6962-5-1-2-2-06-6"
       inkscape:export-filename="C:\Users\jo\eq 27 q 2x2.png"
       inkscape:export-xdpi="140"
       inkscape:export-ydpi="140"><tspan
         sodipodi:role="line"
         id="tspan6960-32-3-7-6-17-4"
         x="-320.86621"
         y="209.14882"
         style="writing-mode:lr-tb;stroke-width:0.264583">(</tspan></text>
    <text
       xml:space="preserve"
       style="font-style:normal;font-weight:normal;font-size:42.3333px;line-height:1.25;font-family:sans-serif;letter-spacing:0px;word-spacing:0px;writing-mode:lr-tb;fill:#000000;fill-opacity:1;stroke:none;stroke-width:0.264583"
       x="-82.36702"
       y="209.14882"
       id="text6962-0-6-50-6-9-5-0"
       inkscape:export-filename="C:\Users\jo\eq 27 q 2x2.png"
       inkscape:export-xdpi="140"
       inkscape:export-ydpi="140"><tspan
         sodipodi:role="line"
         id="tspan6960-5-9-73-3-0-35-8"
         x="-82.36702"
         y="209.14882"
         style="writing-mode:lr-tb;stroke-width:0.264583">)</tspan></text>
  </g>
</svg>
